<?xml version="1.0" standalone="no"?><!DOCTYPE svg PUBLIC "-//W3C//DTD SVG 1.1//EN" "http://www.w3.org/Graphics/SVG/1.1/DTD/svg11.dtd"><svg t="1782288017494" class="icon" viewBox="0 0 1024 1024" version="1.1" xmlns="http://www.w3.org/2000/svg" p-id="5871" xmlns:xlink="http://www.w3.org/1999/xlink" width="200" height="200"><path d="M793.341414 1008.484848H230.658586v-16.549494c0-27.410101 22.238384-49.648485 49.648485-49.648485h463.385858c27.410101 0 49.648485 22.238384 49.648485 49.648485V1008.484848z m0 0" fill="#515F5F" p-id="5872"></path><path d="M694.044444 942.286869h-413.737373c-27.410101 0-49.648485 22.238384-49.648485 49.648485V1008.484848h513.034343v-16.549494c0-27.410101-22.238384-49.648485-49.648485-49.648485z m0 0" fill="#6C7F7F" p-id="5873"></path><path d="M379.60404 942.286869v-165.49495h264.79192v165.49495" fill="#364040" p-id="5874"></path><path d="M379.60404 776.791919H594.747475v165.49495H379.60404z" fill="#515F5F" p-id="5875"></path><path d="M1008.484848 644.39596H15.515152V197.559596c0-36.589899 29.608081-66.19798 66.197979-66.19798h860.573738c36.589899 0 66.19798 29.608081 66.197979 66.19798v446.836364z m0 0" fill="#7FCDEE" p-id="5876"></path><path d="M892.638384 131.361616H81.713131c-36.589899 0-66.19798 29.608081-66.197979 66.19798v446.836364h943.321212V197.559596c0-36.589899-29.608081-66.19798-66.19798-66.19798z m0 0" fill="#A9DDF3" p-id="5877"></path><path d="M1008.484848 644.39596v66.197979c0 36.589899-29.608081 66.19798-66.197979 66.19798H81.713131c-36.589899 0-66.19798-29.608081-66.197979-66.19798v-66.197979" fill="#515F5F" p-id="5878"></path><path d="M958.836364 710.593939v-66.197979H15.515152v66.197979c0 36.589899 29.608081 66.19798 66.197979 66.19798h810.925253c36.589899 0 66.19798-29.608081 66.19798-66.19798z m0 0" fill="#6C7F7F" p-id="5879"></path><path d="M445.80202 694.044444h132.39596v33.09899H445.80202v-33.09899z m446.836364 0H925.737374v33.09899h-33.09899v-33.09899z m-66.19798 0h33.09899v33.09899h-33.09899v-33.09899z m-728.177778 0h33.09899v33.09899H98.262626v-33.09899z m66.19798 0h33.09899v33.09899H164.460606v-33.09899z m0 0" fill="#4D4D4D" p-id="5880"></path></svg>